<svg width="32" height="32" viewBox="0 0 32 32" fill="none" xmlns="http://www.w3.org/2000/svg">
<rect width="32" height="32" rx="16" fill="currentColor"/>
<path fill-rule="evenodd" clip-rule="evenodd" d="M16.7753 6.75068C17.9069 5.65773 19.4225 5.05296 20.9957 5.06663C22.5689 5.0803 24.0738 5.71132 25.1862 6.82377C26.2986 7.93621 26.9297 9.44109 26.9433 11.0143C26.957 12.5875 26.3522 14.1031 25.2593 15.2347L25.2471 15.2471L22.2472 18.2469C21.639 18.8554 20.907 19.326 20.1009 19.6267C19.2947 19.9274 18.4334 20.0512 17.5752 19.9897C16.717 19.9283 15.8821 19.683 15.1271 19.2705C14.3721 18.858 13.7146 18.2879 13.1992 17.5989C12.8684 17.1567 12.9588 16.53 13.401 16.1992C13.8433 15.8684 14.47 15.9587 14.8008 16.401C15.1443 16.8603 15.5827 17.2403 16.086 17.5153C16.5894 17.7903 17.146 17.9539 17.7181 17.9949C18.2902 18.0358 18.8644 17.9533 19.4018 17.7528C19.9393 17.5523 20.4273 17.2386 20.8328 16.833L23.8264 13.8393C24.5514 13.0856 24.9525 12.0777 24.9434 11.0316C24.9343 9.98286 24.5136 8.97961 23.772 8.23798C23.0304 7.49635 22.0271 7.07567 20.9783 7.06656C19.9318 7.05746 18.9235 7.45887 18.1696 8.1845L16.455 9.88913C16.0634 10.2785 15.4302 10.2767 15.0408 9.88501C14.6515 9.49335 14.6533 8.86018 15.045 8.4708L16.765 6.7608L16.7753 6.75068Z" fill="white"/>
<path fill-rule="evenodd" clip-rule="evenodd" d="M11.8992 12.3732C12.7053 12.0725 13.5666 11.9487 14.4248 12.0102C15.283 12.0716 16.1179 12.317 16.8729 12.7295C17.6279 13.142 18.2854 13.712 18.8008 14.401C19.1316 14.8432 19.0412 15.4699 18.599 15.8007C18.1567 16.1315 17.53 16.0412 17.1992 15.5989C16.8557 15.1396 16.4173 14.7596 15.914 14.4846C15.4106 14.2096 14.854 14.0461 14.2819 14.0051C13.7098 13.9641 13.1356 14.0466 12.5982 14.2471C12.0608 14.4476 11.5727 14.7613 11.1672 15.1669L8.17359 18.1606C7.44856 18.9144 7.0475 19.9222 7.05659 20.9683C7.06571 22.0171 7.48638 23.0203 8.22802 23.762C8.96965 24.5036 9.9729 24.9243 11.0217 24.9334C12.0677 24.9425 13.0756 24.5414 13.8294 23.8164L15.5329 22.1129C15.9234 21.7223 16.5566 21.7223 16.9471 22.1129C17.3376 22.5034 17.3376 23.1365 16.9471 23.5271L15.2371 25.2371L15.2247 25.2493C14.0931 26.3422 12.5775 26.947 11.0043 26.9333C9.43113 26.9196 7.92625 26.2886 6.8138 25.1762C5.70135 24.0637 5.07034 22.5588 5.05667 20.9857C5.043 19.4125 5.64776 17.8969 6.74071 16.7653L6.75289 16.7529L9.75277 13.753C9.75272 13.753 9.75281 13.7529 9.75277 13.753C10.361 13.1446 11.0931 12.6739 11.8992 12.3732Z" fill="white"/>
</svg>
